<svg width="26" height="30" fill="rgb(0, 255, 21)" xmlns="http://www.w3.org/2000/svg"><path d="M25.482 10.044a1.062 1.062 0 00-.794-.357h-5.313V6.5A6.381 6.381 0 0013 .125 6.381 6.381 0 006.625 6.5v3.188H1.313a1.062 1.062 0 00-1.057 1.187l1.81 15.219a4.247 4.247 0 004.224 3.781h13.42a4.244 4.244 0 004.223-3.773l1.81-15.227a1.065 1.065 0 00-.26-.83zM8.75 6.5A4.254 4.254 0 0113 2.25a4.254 4.254 0 014.25 4.25v3.188h-8.5V6.5zm-1.062 7.438a1.063 1.063 0 110-2.126 1.063 1.063 0 010 2.126zm10.625 0a1.063 1.063 0 110-2.126 1.063 1.063 0 010 2.126z" fill="#fff"/></svg>