<svg width="19" height="19" viewBox="0 0 19 19" fill="none" xmlns="http://www.w3.org/2000/svg">
<path d="M13.6736 19C10.3428 19 6.78589 17.7761 4.00484 14.9951C1.22843 12.2187 0 8.66415 0 5.32642C0 2.3848 2.3799 0 5.32642 0C5.55405 0 5.75871 0.138566 5.84324 0.349904L8.22815 6.31216C8.34234 6.5976 8.20351 6.92153 7.9181 7.03571L5.29829 8.08361C5.48361 11.0976 7.90292 13.5167 10.9164 13.7018L11.9643 11.082C12.0782 10.797 12.4021 10.6577 12.6879 10.7719L18.6501 13.1568C18.8614 13.2413 19 13.446 19 13.6736C19 16.6152 16.6201 19 13.6736 19Z" fill="#4EB4E6"/>
</svg>
