<svg width="26" height="30" viewBox="0 0 26 30" fill="none" xmlns="http://www.w3.org/2000/svg">
<path d="M25.4823 10.0445C25.2804 9.81713 24.9914 9.6875 24.6876 9.6875H19.3751V6.5C19.3751 2.98419 16.5159 0.125 13.0001 0.125C9.48425 0.125 6.62506 2.98419 6.62506 6.5V9.6875H1.31256C1.00869 9.6875 0.719687 9.81713 0.517812 10.0445C0.315937 10.2719 0.221374 10.5747 0.256437 10.8754L2.06587 26.0936C2.306 28.2494 4.12181 29.875 6.29037 29.875H19.7097C21.8794 29.875 23.6941 28.2494 23.9332 26.1021L25.7437 10.8754C25.7787 10.5736 25.6842 10.2719 25.4823 10.0445ZM8.75006 6.5C8.75006 4.15613 10.6562 2.25 13.0001 2.25C15.3439 2.25 17.2501 4.15613 17.2501 6.5V9.6875H8.75006V6.5ZM7.68756 13.9375C7.10106 13.9375 6.62506 13.4615 6.62506 12.875C6.62506 12.2885 7.10106 11.8125 7.68756 11.8125C8.27406 11.8125 8.75006 12.2885 8.75006 12.875C8.75006 13.4615 8.27406 13.9375 7.68756 13.9375ZM18.3126 13.9375C17.7261 13.9375 17.2501 13.4615 17.2501 12.875C17.2501 12.2885 17.7261 11.8125 18.3126 11.8125C18.8991 11.8125 19.3751 12.2885 19.3751 12.875C19.3751 13.4615 18.8991 13.9375 18.3126 13.9375Z" fill="white"/>
</svg>
