<svg width="114" height="23" fill="none" xmlns="http://www.w3.org/2000/svg"><path fill-rule="evenodd" clip-rule="evenodd" d="M.57.687h18.033c-3.209 2.056-5.866 5.57-8.236 8.208-2.192 2.443-4.217 4.624-6.388 7.01a25.623 25.623 0 01-3.41 3.082V.687zm24.622 0h5.179c-2.268 1.261-4.024 3.306-5.574 5.016-1.138 1.254-2.045 2.245-3.11 3.433-2.968 3.312-6.587 7.659-10.002 10.19-1.59 1.178-4.124 2.175-4.312 2.377 1.468.641 4.63.424 6.283-.022 2.108-.569 3.265-1.4 4.467-2.478 5.84-5.232 12.312-15.03 18.57-18.35l.317-.166h76.349v19.134c-2.38-1.527-4.012-3.434-5.931-5.503-2.736-2.953-4.968-5.505-7.624-8.38-1.609-1.724-4.059-3.687-6.246-4.405a5.912 5.912 0 00-2.446-.395c-2.835.142-4.393.785-6.552 2.567-2.135 1.761-8.984 9.583-11.21 12.025-.938 1.027-1.661 1.981-3.214 2.6-1.477.588-3.696.486-4.876-.408.129-.483 6.93-7.776 7.843-8.789 2.176-2.411 3.793-4.257 6.53-5.984 1.316-.831 2.738-1.158 2.867-1.471-2.058-.844-5.86-.16-7.507.665-3.94 1.974-11.131 11.876-12.703 12.664-.2-.112-.084-.032-.266-.182l-2.777-3.18C60.87 9.864 62.59 7.793 64.345 6.1c1.242-1.198 2.891-2.559 4.643-3.48.395-.208.553-.297.933-.452.482-.197.846-.157.98-.49-1.269-.486-3.675-.41-5.107-.127-5.046.995-7.546 6.041-9.238 7.067-.426-.161-.261-.077-.59-.427-1.13-1.202-2.21-2.55-3.408-3.656-1.578-1.456-2.954-2.451-5.267-2.974C41.563.264 38.209 3.514 35.75 6.175c-2.657 2.873-4.89 5.426-7.626 8.379-2.355 2.54-4.279 4.84-7.689 6.486-.313.152-1.305.364-1.447.698.985.49 3.944.398 5.093.138 1.624-.367 2.62-.792 3.831-1.72 2.22-1.703 4.781-4.97 5.415-5.353 1.355.53 4.025 5.881 9.123 7.037 1.442.328 3.892.48 5.17-.102-.149-.26-.173-.224-.808-.47-1.955-.755-4.29-2.602-5.606-3.904-.515-.51-.78-.918-1.259-1.416-.493-.512-.811-.889-1.274-1.393-.451-.493-.892-.883-1.292-1.373-.337-.413-.991-1.01-1.229-1.413.102-.418 2.455-2.761 2.909-3.37.41.112 1.643 1.637 2 2.06 1.602 1.897 4.349 4.665 6.143 6.681 1.204 1.355 2.932 3.077 4.56 3.917 1.583.818 5.564 1.57 7.642.68-.056-.125-1.938-.866-2.812-1.39-2.81-1.682-4.483-3.702-6.611-6.029-.985-1.076-7.672-8.369-7.851-8.843 1.304-.678 3.104-1.056 4.806-.398 1.625.628 2.028 1.416 3.12 2.533 3.524 3.608 7.235 8.25 10.679 11.489 2.093 1.967 4.466 3.252 8.615 2.953 3.157-.23 5.578-2.306 7.26-4.075.934-.981 2.116-2.283 3.413-3.71 1.311 2.322 2.841 4.444 4.665 5.619 1.528.984 4.396 2.206 6.102 1.994-.14-.42.043-.16-.395-.543-1.61-1.41-1.596-1.177-3.207-3.316a27.348 27.348 0 01-2.566-4.149c-.502-1.024-.995-2.019-1.484-3.008a154.689 154.689 0 012.816-2.969c3.09 4.22 6.296 10.592 11.25 12.725 1.584.682 5.651 1.51 7.324 1.008-.162-.435-.759-.542-1.323-.834-.387-.201-.779-.46-1.278-.79-4.862-3.214-9.4-9.934-12.778-14.578 2.516-.933 4.802.317 5.387.889 4.152 3.953 8.821 10.322 13.103 13.605 1.211.928 2.208 1.353 3.831 1.72.437.099 1.136.173 1.887.2v1.019H.569v-.864a13.34 13.34 0 001.756-.346c4.153-1.144 8.18-6.347 11.053-9.547 3.2-3.567 7.513-8.959 11.814-11.415z" fill="url(#paint0_linear_194_6415)"/><defs><linearGradient id="paint0_linear_194_6415" x1="-20.634" y1="5.656" x2="113.359" y2="4.216" gradientUnits="userSpaceOnUse"><stop stop-color="#6EBFA0"/><stop offset=".522" stop-color="#48C1F0"/><stop offset="1" stop-color="#785FA5"/></linearGradient></defs></svg>