<svg width="175" height="25" fill="none" xmlns="http://www.w3.org/2000/svg"><path d="M1.825.547c-.537 0-.9.313-1.121.919v21.745c0 .444.386.735 1.12.92h.399c.702 0 1.1-.46 1.203-1.38V5.409l12.255 14.91c.708 1.132 1.408 1.71 2.097 1.71.384 0 .77-.152 1.126-.46 8.73-10.755 13.149-16.143 13.225-16.16v17.344c.102.919.5 1.379 1.202 1.379h.398c.537 0 .901-.314 1.121-.92V1.466c0-.442-.385-.734-1.12-.92h-.399c-.2 0-.44.084-.722.265-3.56 4.255-8.481 10.277-14.749 18.066h-.165c-.021-.101-4.434-5.501-13.224-16.228C3.5 1.253 2.766.547 2.223.547h-.398zM43.036 2.7c-.53 0-.873.28-1.052.858v19.715c0 .426.344.706 1.052.858h.316c.529 0 .873-.28 1.052-.858V3.558c0-.427-.344-.707-1.052-.858h-.316zm6.536 0c-.523 0-.86.28-1.044.858v.263c0 .471.404.769 1.209.852h1.106v17.479h-1.127c-.784.083-1.188.375-1.188.858v.257c0 .432.343.712 1.044.858h17.23c.304 0 .805-.348 1.526-1.054 1.877-1.43 2.819-2.248 2.819-2.495v-.331c0-.477-.4-.774-1.203-.852h-.166c-.302 0-1.566.92-3.786 2.759h-12.64V3.754c0-.578-.344-.92-1.044-1.054h-2.736zm34.448.202c-1.106 0-2.391.213-3.856.656-4.825 1.744-7.244 5.18-7.244 10.312v9.403c0 .426.343.706 1.051.858h.317c.529 0 .872-.28 1.05-.858v-5.977h18.408v5.977c0 .426.343.706 1.051.858h.316c.53 0 .873-.28 1.052-.858V13.87c0-2.81-.729-5.148-2.179-6.97-2.57-2.675-5.547-3.998-8.92-3.998H84.02zm-8.68 11.893c0-3.011.543-5.103 1.608-6.252 1.911-2.288 4.44-3.42 7.636-3.42 2.633 0 4.84.834 6.667 2.5 1.671 1.2 2.496 3.6 2.496 7.172v.46H75.339v-.46zm24.737-12.09c-.522 0-.866.28-1.045.858V5.8c0 .442.405.734 1.21.92.804-.186 1.209-.478 1.209-.92V4.746h7.65v18.527c0 .426.344.706 1.051.858h.324c.742 0 1.127-.46 1.127-1.38V4.747h7.251v1.055c0 .426.344.7 1.045.852h.323c.522 0 .866-.28 1.044-.852V3.563c0-.432-.337-.712-1.044-.858h-20.145zm34.249.27c-2.489 0-4.963.74-7.396 2.237-3.059 2.36-4.592 4.974-4.592 7.81v.92c0 2.613 1.354 5.041 4.028 7.29 2.715 1.923 5.41 2.893 8.125 2.893h1.12c1.91 0 3.862-.442 5.869-1.318 2.956-1.43 4.976-3.364 6.042-5.842-.082-.74-.502-1.116-1.293-1.116-.563 0-1.147.605-1.773 1.84-2.392 2.97-5.422 4.463-9.086 4.463-1.464 0-2.955-.248-4.42-.724-4.123-1.856-6.192-4.497-6.192-7.946 0-1.233.323-2.478.962-3.74 2.055-3.201 5.086-4.793 9.086-4.793 2.619 0 4.928.655 6.922 1.967 2.247 1.694 3.375 3.236 3.375 4.66v.263c0 .477-.565.724-1.691.724h-15.595c-.606 0-.99.347-1.128 1.054 0 .51.399.807 1.203.92h16.166c.302 0 .701-.051 1.202-.13 1.513-.493 2.262-1.3 2.262-2.432v-.528c0-1.216-.584-2.512-1.773-3.875-2.88-3.067-6.337-4.597-10.379-4.597h-1.044zm16.633-.27c-.509 0-.846.315-1.052.92 0 .612.426.97 1.292 1.054h1.931c4.028 4.828 6.303 7.52 6.846 8.08-.179.342-2.798 3.482-7.891 9.393h-1.856c-.72 0-1.147.347-1.285 1.054.22.605.585.919 1.045.919h2.735c.427 0 .846-.18 1.293-.527 4.894-5.882 7.409-8.854 7.574-8.933 2.914 3.578 4.647 5.614 5.154 6.107 1.63 2.238 2.798 3.353 3.458 3.353h2.824c.523 0 .867-.28 1.045-.858v-.129c0-.594-.405-.919-1.209-.986h-2.014c-.302-.41-2.88-3.5-7.732-9.264v-.129c4.151-4.879 6.406-7.57 6.769-8.08h2.015c.804-.1 1.202-.375 1.202-.858v-.258c0-.432-.343-.712-1.044-.858h-2.819c-.261 0-.584.13-.969.392-2.033 2.306-4.247 4.93-6.68 7.89-.062 0-1.876-2.085-5.402-6.24-.942-1.368-1.767-2.042-2.495-2.042h-2.735z" fill="#FEFEFE"/></svg>