<svg width="114" height="23" viewBox="0 0 114 23" fill="none" xmlns="http://www.w3.org/2000/svg">
<path fill-rule="evenodd" clip-rule="evenodd" d="M0.569092 0.687286H18.6033C15.3942 2.74291 12.7368 6.25725 10.3674 8.8954C8.17454 11.3378 6.14962 13.5191 3.97883 15.9049C3.00668 16.974 1.75237 18.0987 0.569092 18.9874V0.687286ZM25.1915 0.687286H30.3709C28.1032 1.9483 26.347 3.99337 24.7971 5.70256C23.6589 6.95685 22.752 7.9482 21.6878 9.13627C18.7195 12.4481 15.0996 16.7945 11.685 19.3261C10.0958 20.5036 7.5613 21.5007 7.37321 21.7032C8.84055 22.3443 12.0036 22.1274 13.6562 21.6812C15.7637 21.1121 16.921 20.281 18.1235 19.2033C23.9622 13.9711 30.4352 4.17379 36.6933 0.853311C36.8046 0.794771 36.9092 0.740069 37.01 0.687286H113.359V19.8213C110.979 18.2945 109.347 16.3866 107.428 14.3176C104.692 11.3646 102.46 8.81286 99.8036 5.93863C98.1952 4.2141 95.7451 2.2506 93.558 1.53276C92.9505 1.3034 92.1463 1.08652 91.1118 1.13834C88.2769 1.28037 86.7193 1.92335 84.5601 3.70547C82.4248 5.46648 75.5765 13.2878 73.3491 15.7302C72.4115 16.7571 71.6889 17.711 70.1361 18.33C68.6592 18.9183 66.4404 18.8156 65.26 17.9221C65.3886 17.4394 72.1908 10.1459 73.1034 9.1334C75.279 6.72173 76.8961 4.87627 79.6321 3.14885C80.9488 2.31778 82.371 1.99149 82.4996 1.67768C80.4421 0.83412 76.6408 1.51741 74.993 2.34273C71.0536 4.31678 63.8617 14.2187 62.2898 15.0066C62.0892 14.8953 62.2063 14.9749 62.024 14.8252L59.2467 11.6458C60.8714 9.86275 62.5902 7.79177 64.3454 6.09986C65.5872 4.90218 67.236 3.54137 68.9883 2.61912C69.3828 2.41183 69.5411 2.32258 69.9212 2.16807C70.4029 1.97134 70.7666 2.01068 70.9019 1.67768C69.6323 1.19208 67.2264 1.26789 65.7936 1.551C60.7476 2.54618 58.2476 7.59215 56.5557 8.61805C56.1296 8.45682 56.2947 8.54128 55.9655 8.191C54.8369 6.98852 53.7554 5.64017 52.5577 4.53463C50.98 3.0788 49.6038 2.08362 47.291 1.56059C41.5627 0.26407 38.2086 3.51449 35.7499 6.17472C33.0926 9.04799 30.8604 11.6007 28.1243 14.5536C25.7693 17.0949 23.8451 19.3933 20.4354 21.0401C20.1225 21.1917 19.1302 21.4038 18.9882 21.7378C19.9728 22.2282 22.9315 22.136 24.0812 21.876C25.705 21.5094 26.7011 21.0842 27.9122 20.1562C30.1329 18.4528 32.6933 15.1851 33.3267 14.8032C34.6818 15.3329 37.3516 20.6841 42.4504 21.8405C43.8918 22.1677 46.3419 22.3193 47.6192 21.7378C47.4714 21.4777 47.4465 21.5142 46.8121 21.2685C44.8572 20.5132 42.5224 18.6659 41.2057 17.3636C40.6913 16.854 40.4264 16.4461 39.9475 15.9481C39.4543 15.4356 39.1357 15.0594 38.6731 14.5546C38.222 14.0623 37.7806 13.6717 37.3814 13.1823C37.0435 12.7687 36.39 12.1727 36.152 11.7687C36.2537 11.3512 38.6069 9.00768 39.0608 8.39828C39.4715 8.51057 40.7038 10.0364 41.0608 10.4597C42.6625 12.356 45.41 15.1237 47.2037 17.14C48.4081 18.495 50.1364 20.2167 51.764 21.0574C53.3475 21.875 57.3283 22.6264 59.406 21.7378C59.3503 21.6121 57.4684 20.8712 56.5941 20.3472C53.7842 18.6649 52.1105 16.6448 49.9829 14.3185C48.9983 13.2418 42.3112 5.94919 42.1318 5.47511C43.436 4.79662 45.2363 4.41947 46.9378 5.07685C48.5626 5.70543 48.9656 6.49332 50.0577 7.61039C53.5817 11.2178 57.2927 15.8607 60.737 19.0987C62.8301 21.066 65.2034 22.351 69.3521 22.0516C72.5094 21.8222 74.9297 19.7455 76.612 17.9768C77.5458 16.996 78.7281 15.6937 80.0246 14.2667C81.3365 16.5891 82.8662 18.711 84.6896 19.8856C86.2184 20.8702 89.0859 22.0919 90.7922 21.8798C90.6511 21.4604 90.8354 21.7205 90.3968 21.3366C88.7865 19.9269 88.8009 20.1601 87.1896 18.021C86.2539 16.7772 85.3009 15.2494 84.6244 13.8723C84.1215 12.8483 83.6292 11.8531 83.1397 10.8637C84.086 9.8426 85.0389 8.83302 85.9564 7.89541C89.0456 12.1142 92.2519 18.4874 97.2057 20.6198C98.7902 21.3021 102.857 22.1293 104.53 21.6284C104.368 21.1927 103.771 21.0862 103.207 20.7935C102.82 20.5929 102.428 20.3338 101.929 20.0036C97.0675 16.7897 92.5292 10.07 89.1512 5.42617C91.6665 4.49336 93.9534 5.74286 94.5378 6.31482C98.6904 10.2677 103.359 16.6371 107.641 19.9202C108.852 20.8482 109.849 21.2733 111.472 21.6399C111.909 21.7387 112.608 21.8126 113.359 21.8405V22.8587H0.569092V21.995C1.22071 21.9086 1.82915 21.7867 2.3253 21.6495C6.47782 20.5046 10.5056 15.3022 13.3779 12.1017C16.5784 8.53456 20.8912 3.1431 25.1915 0.687286Z" fill="url(#paint0_linear_194_6415)"/>
<defs>
<linearGradient id="paint0_linear_194_6415" x1="-20.634" y1="5.65553" x2="113.359" y2="4.21601" gradientUnits="userSpaceOnUse">
<stop stop-color="#6EBFA0"/>
<stop offset="0.521569" stop-color="#48C1F0"/>
<stop offset="1" stop-color="#785FA5"/>
</linearGradient>
</defs>
</svg>
