<svg width="175" height="25" viewBox="0 0 175 25" fill="none" xmlns="http://www.w3.org/2000/svg">
<path d="M1.82476 0.546631C1.2883 0.546631 0.924583 0.860447 0.703857 1.466V23.2113C0.703857 23.6547 1.08965 23.9455 1.82476 24.1307H2.22303C2.92455 24.1307 3.32282 23.671 3.42646 22.7516V5.40836L15.6806 20.3179C16.3888 21.4503 17.0894 22.028 17.7775 22.028C18.1623 22.028 18.5471 21.8764 18.9041 21.5684C27.6334 10.8133 32.0527 5.42467 32.1285 5.40836V22.7516C32.2312 23.671 32.6294 24.1307 33.331 24.1307H33.7292C34.2657 24.1307 34.6304 23.8169 34.8501 23.2113V1.466C34.8501 1.02359 34.4653 0.731849 33.7292 0.546631H33.331C33.1314 0.546631 32.8914 0.630123 32.6093 0.810542C29.0489 5.06575 24.1277 11.0877 17.86 18.8765H17.6949C17.6738 18.7757 13.2612 13.3756 4.47059 2.64929C3.50132 1.25296 2.7662 0.546631 2.22303 0.546631H1.82476ZM43.0362 2.70015C42.5064 2.70015 42.1629 2.98037 41.9844 3.5581V23.2728C41.9844 23.6989 42.3279 23.9791 43.0362 24.1307H43.3519C43.8807 24.1307 44.2252 23.8505 44.4037 23.2728V3.5581C44.4037 3.13104 44.0602 2.85082 43.3519 2.70015H43.0362ZM49.5725 2.70015C49.0495 2.70015 48.7127 2.98037 48.5275 3.5581V3.82105C48.5275 4.29225 48.9324 4.58975 49.7366 4.67324H50.8432V22.1518H49.7165C48.9324 22.2353 48.5275 22.5271 48.5275 23.0098V23.267C48.5275 23.6988 48.871 23.9791 49.5725 24.1249H66.8026C67.1059 24.1249 67.6068 23.7775 68.3285 23.0712C70.2046 21.6413 71.147 20.8227 71.147 20.5761V20.245C71.147 19.768 70.7478 19.4715 69.9436 19.3928H69.7785C69.4762 19.3928 68.2123 20.3121 65.9917 22.1518H53.3527V3.75388C53.3527 3.17615 53.0082 2.8345 52.3076 2.70015H49.5725ZM84.0201 2.90168C82.9136 2.90168 81.6286 3.11473 80.1642 3.5581C75.3389 5.30183 72.9196 8.73844 72.9196 13.8698V23.2728C72.9196 23.6989 73.2631 23.9791 73.9714 24.1307H74.2881C74.8169 24.1307 75.1604 23.8505 75.3389 23.2728V17.2959H93.7455V23.2728C93.7455 23.6989 94.0891 23.9791 94.7973 24.1307H95.1131C95.6428 24.1307 95.9864 23.8505 96.1649 23.2728V13.8698C96.1649 11.0599 95.4365 8.72212 93.9864 6.8997C91.4154 4.22507 88.4395 2.90168 85.0652 2.90168H84.0201ZM75.3389 14.795C75.3389 11.7835 75.8821 9.69236 76.9473 8.54266C78.858 6.25479 81.3878 5.12237 84.5835 5.12237C87.2159 5.12237 89.4222 5.95729 91.2504 7.62329C92.9212 8.82289 93.7455 11.223 93.7455 14.795V15.2546H75.3389V14.795ZM100.076 2.70494C99.5535 2.70494 99.2099 2.98517 99.0305 3.5629V5.80086C99.0305 6.24328 99.4364 6.53502 100.241 6.72024C101.045 6.53502 101.45 6.24328 101.45 5.80086V4.74618H109.1V23.2728C109.1 23.6989 109.444 23.9791 110.151 24.1307H110.475C111.217 24.1307 111.602 23.671 111.602 22.7516V4.74618H118.853V5.80086C118.853 6.22696 119.197 6.50143 119.898 6.65306H120.221C120.743 6.65306 121.087 6.37283 121.265 5.80086V3.5629C121.265 3.13104 120.928 2.85082 120.221 2.70494H100.076ZM134.325 2.97462C131.836 2.97462 129.362 3.71453 126.929 5.21163C123.87 7.57243 122.337 10.1856 122.337 13.0224V13.9428C122.337 16.555 123.691 18.983 126.365 21.2315C129.08 23.1547 131.775 24.1249 134.49 24.1249H135.61C137.52 24.1249 139.472 23.6825 141.479 22.8073C144.435 21.3774 146.455 19.4427 147.521 16.9648C147.439 16.2249 147.019 15.8487 146.228 15.8487C145.665 15.8487 145.081 16.4542 144.455 17.6884C142.063 20.6595 139.033 22.1518 135.369 22.1518C133.905 22.1518 132.414 21.9042 130.949 21.4282C126.826 19.5722 124.757 16.9312 124.757 13.4821C124.757 12.2489 125.08 11.0042 125.719 9.74226C127.774 6.54078 130.805 4.94867 134.805 4.94867C137.424 4.94867 139.733 5.60413 141.727 6.91601C143.974 8.60984 145.102 10.152 145.102 11.5762V11.8392C145.102 12.3161 144.537 12.5628 143.411 12.5628H127.816C127.21 12.5628 126.826 12.9102 126.688 13.6174C126.688 14.127 127.087 14.4245 127.891 14.5368H144.057C144.359 14.5368 144.758 14.4859 145.259 14.4072C146.772 13.914 147.521 13.1069 147.521 11.9745V11.4466C147.521 10.2307 146.937 8.93517 145.748 7.57243C142.868 4.5053 139.411 2.97462 135.369 2.97462H134.325ZM150.958 2.70494C150.449 2.70494 150.112 3.01972 149.906 3.62528C149.906 4.23659 150.332 4.59455 151.198 4.679H153.129C157.157 9.50714 159.432 12.1981 159.975 12.7595C159.796 13.1011 157.177 16.2412 152.084 22.1518H150.228C149.508 22.1518 149.081 22.4992 148.943 23.2056C149.163 23.8111 149.528 24.1249 149.988 24.1249H152.723C153.15 24.1249 153.569 23.9455 154.016 23.5981C158.91 17.7162 161.425 14.7441 161.59 14.6654C164.504 18.2431 166.237 20.2786 166.744 20.7718C168.374 23.0098 169.542 24.1249 170.202 24.1249H173.026C173.549 24.1249 173.893 23.8447 174.071 23.267V23.1384C174.071 22.5444 173.666 22.219 172.862 22.1518H170.848C170.546 21.7421 167.968 18.6529 163.116 12.8881V12.7595C167.267 7.88049 169.522 5.18955 169.885 4.679H171.9C172.704 4.57823 173.102 4.30377 173.102 3.82105V3.5629C173.102 3.13104 172.759 2.85082 172.058 2.70494H169.239C168.978 2.70494 168.655 2.8345 168.27 3.09745C166.237 5.4026 164.023 8.02636 161.59 10.987C161.528 10.987 159.714 8.90158 156.188 4.74618C155.246 3.37864 154.421 2.70494 153.693 2.70494H150.958Z" fill="#FEFEFE"/>
</svg>
