<svg width="24" height="24" viewBox="0 0 24 24" fill="none" xmlns="http://www.w3.org/2000/svg">
<path d="M11.9999 8.50001C11.0717 8.50001 10.1814 8.86876 9.52505 9.52514C8.86867 10.1815 8.49992 11.0718 8.49992 12C8.49992 12.9283 8.86867 13.8185 9.52505 14.4749C10.1814 15.1313 11.0717 15.5 11.9999 15.5C12.9282 15.5 13.8184 15.1313 14.4748 14.4749C15.1312 13.8185 15.4999 12.9283 15.4999 12C15.4999 11.0718 15.1312 10.1815 14.4748 9.52514C13.8184 8.86876 12.9282 8.50001 11.9999 8.50001ZM11.9999 6.16668C13.547 6.16668 15.0307 6.78126 16.1247 7.87522C17.2187 8.96918 17.8333 10.4529 17.8333 12C17.8333 13.5471 17.2187 15.0308 16.1247 16.1248C15.0307 17.2188 13.547 17.8333 11.9999 17.8333C10.4528 17.8333 8.96909 17.2188 7.87513 16.1248C6.78117 15.0308 6.16659 13.5471 6.16659 12C6.16659 10.4529 6.78117 8.96918 7.87513 7.87522C8.96909 6.78126 10.4528 6.16668 11.9999 6.16668ZM19.5833 5.87501C19.5833 6.26178 19.4296 6.63272 19.1561 6.90621C18.8826 7.1797 18.5117 7.33334 18.1249 7.33334C17.7381 7.33334 17.3672 7.1797 17.0937 6.90621C16.8202 6.63272 16.6666 6.26178 16.6666 5.87501C16.6666 5.48824 16.8202 5.1173 17.0937 4.84381C17.3672 4.57032 17.7381 4.41668 18.1249 4.41668C18.5117 4.41668 18.8826 4.57032 19.1561 4.84381C19.4296 5.1173 19.5833 5.48824 19.5833 5.87501ZM11.9999 2.66668C9.11359 2.66668 8.64225 2.67484 7.29942 2.73434C6.38475 2.77751 5.77109 2.90001 5.20175 3.12168C4.69542 3.31768 4.33025 3.55218 3.94175 3.94184C3.57659 4.29464 3.29583 4.72536 3.12042 5.20184C2.89875 5.77351 2.77625 6.38601 2.73425 7.29951C2.67359 8.58751 2.66659 9.03784 2.66659 12C2.66659 14.8863 2.67475 15.3577 2.73425 16.7005C2.77742 17.614 2.89992 18.2288 3.12042 18.797C3.31875 19.3045 3.55209 19.6697 3.93942 20.057C4.33259 20.449 4.69775 20.6835 5.19942 20.8772C5.77575 21.1 6.38942 21.2237 7.29942 21.2657C8.58742 21.3263 9.03775 21.3333 11.9999 21.3333C14.8863 21.3333 15.3576 21.3252 16.7004 21.2657C17.6128 21.2225 18.2276 21.1 18.7969 20.8795C19.3021 20.6823 19.6696 20.4478 20.0569 20.0605C20.4501 19.6673 20.6846 19.3022 20.8783 18.8005C21.0999 18.2253 21.2236 17.6105 21.2656 16.7005C21.3263 15.4125 21.3333 14.9622 21.3333 12C21.3333 9.11368 21.3251 8.64234 21.2656 7.29951C21.2224 6.38718 21.0999 5.77118 20.8783 5.20184C20.7024 4.72585 20.4222 4.2953 20.0581 3.94184C19.7054 3.5765 19.2747 3.2957 18.7981 3.12051C18.2264 2.89884 17.6128 2.77634 16.7004 2.73434C15.4124 2.67368 14.9621 2.66668 11.9999 2.66668ZM11.9999 0.333344C15.1698 0.333344 15.5653 0.34501 16.8089 0.403343C18.0514 0.461677 18.8973 0.65651 19.6416 0.945844C20.4116 1.24218 21.0603 1.64351 21.7089 2.29101C22.3022 2.87422 22.7612 3.5797 23.0541 4.35834C23.3423 5.10151 23.5383 5.94851 23.5966 7.19101C23.6514 8.43468 23.6666 8.83018 23.6666 12C23.6666 15.1698 23.6549 15.5653 23.5966 16.809C23.5383 18.0515 23.3423 18.8973 23.0541 19.6417C22.762 20.4207 22.3029 21.1264 21.7089 21.709C21.1255 22.3021 20.4201 22.7611 19.6416 23.0542C18.8984 23.3423 18.0514 23.5383 16.8089 23.5967C15.5653 23.6515 15.1698 23.6667 11.9999 23.6667C8.83009 23.6667 8.43459 23.655 7.19092 23.5967C5.94842 23.5383 5.10259 23.3423 4.35825 23.0542C3.5793 22.7619 2.8737 22.3028 2.29092 21.709C1.69756 21.1259 1.23851 20.4204 0.945752 19.6417C0.656419 18.8985 0.461585 18.0515 0.403252 16.809C0.348419 15.5653 0.333252 15.1698 0.333252 12C0.333252 8.83018 0.344919 8.43468 0.403252 7.19101C0.461585 5.94734 0.656419 5.10268 0.945752 4.35834C1.23769 3.57922 1.69686 2.87355 2.29092 2.29101C2.87387 1.69745 3.57942 1.23836 4.35825 0.945844C5.10259 0.65651 5.94725 0.461677 7.19092 0.403343C8.43459 0.34851 8.83009 0.333344 11.9999 0.333344Z" fill="white"/>
</svg>
